<svg width="96" height="27" viewBox="0 0 96 27" fill="none" xmlns="http://www.w3.org/2000/svg">
<path d="M31.0753 5.02974L33.3956 13.4036H28.582L31.0753 5.02974ZM26.8424 19.26L24.7246 26.2022H37.1018L35.1055 19.26L26.8424 19.26ZM59.1413 0H35.3838V7.45547H42.8798V26.2022H54.9409C54.1926 25.7403 49.0791 21.6803 49.0791 14.0979C49.0927 7.79313 52.9014 1.62075 59.1413 0ZM63.2581 19.4842C66.0593 19.4842 68.3121 17.1584 68.3121 14.2167C68.3121 11.275 66.2024 8.64943 63.358 8.64943C60.5136 8.64943 58.2769 11.3075 58.2769 14.2275C58.2769 17.1476 60.3812 19.495 63.2689 19.495L63.2581 19.4842ZM88.1745 16.4777L83.35 0H71.0053V26.2022H78.7174V9.78396H78.7714L83.5499 26.2022H96V0H88.2231V16.4777H88.1745ZM14.9434 26.2022L17.1692 18.8548H8.90605V16.6397H17.8472L19.9677 9.59757H8.90605V7.46628H20.5836L22.8364 0H0V26.2022H14.9434Z" fill="#A1A7AA"/>
</svg>
