<svg width="88" height="24" viewBox="0 0 88 24" fill="none" xmlns="http://www.w3.org/2000/svg">
<path d="M28.4635 4.60701L30.5889 12.2771H26.1798L28.4635 4.60701ZM24.5864 17.6412L22.6466 24H33.9835L32.1551 17.6412L24.5864 17.6412ZM54.1707 0H32.4099V6.82887H39.2759V24H50.3233C49.6379 23.5769 44.9542 19.8581 44.9542 12.913C44.9666 7.13815 48.4553 1.48454 54.1707 0ZM57.9415 17.8466C60.5072 17.8466 62.5707 15.7163 62.5707 13.0219C62.5707 10.3274 60.6384 7.92247 58.033 7.92247C55.4276 7.92247 53.379 10.3571 53.379 13.0318C53.379 15.7064 55.3064 17.8565 57.9513 17.8565L57.9415 17.8466ZM80.7637 15.0928L76.3447 0H65.0375V24H72.1014V8.96165H72.1509L76.5278 24H87.9316V0H80.8082V15.0928H80.7637ZM13.6874 24L15.7262 17.2701H8.15753V15.2412H16.3472L18.2895 8.79093H8.15753V6.83876H18.8536L20.9171 0H0V24H13.6874Z" fill="#007BC1"/>
</svg>
